# xmcd
#
# Track frame offsets: 
#        150
#        13163
#        25256
#        39261
#        52262
#        67587
#        80992
#        96147
#        115214
#        126404
#
# Disc length: 1847 seconds
#
# Revision: 0
# Processed by: cddbd v1.5.2PL0 Copyright (c) Steve Scherf et al.
# Submitted via: ExactAudioCopy v0.95b4
#
DISCID=8407350a
DTITLE=The Billy Pilgrims - The Billy Pilgrims
DYEAR=2007
DGENRE=Bluegrass
TTITLE0='Til the Day I Die
TTITLE1=The Blues Come Around
TTITLE2=She Left Me Again
TTITLE3=Big Iron Skillet
TTITLE4=I Can't Stop My Loving You
TTITLE5=I'll Drink No More Wine
TTITLE6=Wine, Do Yer Stuff
TTITLE7=Windy City
TTITLE8=You're Still on My Mind
TTITLE9=Satisfied Mind
EXTD=
EXTT0=
EXTT1=
EXTT2=
EXTT3=
EXTT4=
EXTT5=
EXTT6=
EXTT7=
EXTT8=
EXTT9=
PLAYORDER=
